<svg id="Layer_1" data-name="Layer 1" xmlns="http://www.w3.org/2000/svg" width="978.5" height="836.99" viewBox="0 0 978.5 836.99">
  <defs>
    <style>
      .cls-1 {
        fill: #e8e8e8;
      }

      .cls-2 {
        fill: #314bc4;
      }

      .cls-3 {
        opacity: 0.83;
      }

      .cls-4 {
        opacity: 0.11;
      }

      .cls-5 {
        opacity: 0.07;
      }

      .cls-12, .cls-6 {
        fill: none;
      }

      .cls-13, .cls-23, .cls-6 {
        stroke: #000;
      }

      .cls-12, .cls-13, .cls-23, .cls-6 {
        stroke-miterlimit: 10;
      }

      .cls-7 {
        fill: #232323;
      }

      .cls-8 {
        fill: #2c2c2c;
      }

      .cls-9 {
        fill: #1a1a1a;
      }

      .cls-10 {
        fill: #c9cacc;
      }

      .cls-11, .cls-12, .cls-13, .cls-19, .cls-23, .cls-24, .cls-26, .cls-27, .cls-32, .cls-33, .cls-34, .cls-35 {
        isolation: isolate;
      }

      .cls-11 {
        opacity: 0.1;
      }

      .cls-12 {
        stroke: #fff;
      }

      .cls-12, .cls-13 {
        stroke-width: 2px;
        opacity: 0.03;
      }

      .cls-13, .cls-15 {
        fill: #fff;
      }

      .cls-14 {
        opacity: 0.05;
      }

      .cls-16 {
        fill: #222222;
      }

      .cls-17 {
        fill: #cdcdcd;
      }

      .cls-18 {
        opacity: 0.13;
      }

      .cls-19, .cls-22, .cls-23 {
        opacity: 0.08;
      }

      .cls-20 {
        fill: #ffdc36;
      }

      .cls-21, .cls-24 {
        opacity: 0.65;
      }

      .cls-25 {
        fill: #e7e7e7;
      }

      .cls-36 {
        letter-spacing: -0.02em;
      }

      .cls-37 {
        letter-spacing: -0.01em;
      }

      .cls-38 {
        fill: #f7f7f7;
      }

      .cls-39 {
        fill: #20a070;
      }

      .cls-40 {
        fill: #eb242b;
      }
    </style>
  </defs>
  <g id="Base">
    <path id="Right_Trigger" data-name="Right Trigger" class="cls-1" d="M876.8,199.8s-14.2-40.5-47-58.5-66.7-7.6-84.8,3.7Z"/>
    <path class="cls-2" d="M736,142.8s2-2.8,4.3-3.4,32.9-5.3,79.2,12.1,78.6,45.6,74,54.6c-2.3,3.5-3.4,5-3.4,5Z"/>
    <g id="Left_Trigger" data-name="Left Trigger">
      <path id="Left_Trigger-2" data-name="Left Trigger" class="cls-1" d="M101.7,199.8s14.2-40.5,47-58.5,66.7-7.6,84.8,3.7Z"/>
      <g class="cls-3">
        <g class="cls-4">
          <path d="M161.4,150.8h5.2v19.7h7.6V175H161.4Z"/>
        </g>
        <g class="cls-5">
          <path class="cls-6" d="M161.4,150.8h5.2v19.7h7.6V175H161.4Z"/>
        </g>
      </g>
    </g>
    <path class="cls-7" d="M357.5,406.3l-3.7,38,28-16.3s40.9-11,107.5-11,107.4,11,107.4,11l13.8,4,9-25.7Z"/>
    <path class="cls-8" d="M960.8,362.3C952.8,344.8,834,180.8,834,180.8S674,100,489.3,100s-344.8,80.8-344.8,80.8S25.8,344.8,17.8,362.3,0,647.5,0,647.5s4.5,73.3,9,100.8,20.5,52,20.5,52,26.5,51.8,71,32.3,56-111.5,56-111.5,12.5-84,18-115.5,14-45.5,14-45.5L376.7,423.8c26.2-12,112.6-14,112.6-14s86.4,2,112.6,14L790,560s8.5,14,14,45.5S822,721,822,721s11.5,92,56,111.5,71-32.3,71-32.3,16-24.5,20.5-52,9-100.8,9-100.8S968.8,379.8,960.8,362.3Z"/>
    <g>
      <g>
        <path class="cls-9" d="M521.9,541.7c4.1-36.1,35.7-64.3,51.7-78.8,32.2-29.1,28.6-62.4,27-111.6-2.1-67.7,32.4-107.9,35.6-112.2,3.6-4.8,107-120.3,239-38.9,124.6,89.8,63,224.7,60.4,230.1-1.2,2.4-25,54.8-97.7,83-53,20.6-70.9,61.6-76.7,82.2a103.27,103.27,0,0,1-2.6,12.5h0c-5.8,20.4-20,43.1-51.6,60.5-74.7,41-140.6-8.7-140.6-8.7S512.8,623.3,521.9,541.7Z"/>
        <path class="cls-9" d="M529.9,548.8c4.1-35.8,35.7-63.8,51.7-78.2,32.2-28.8,28.6-61.9,27-110.8-2.1-67.1,32.4-107.1,35.6-111.3,3.6-4.8,107-119.4,239-38.5,124.6,89.1,63,222.9,60.4,228.3-1.2,2.4-25,54.3-97.7,82.3-53,20.4-70.9,61.1-76.7,81.6a101.83,101.83,0,0,1-2.6,12.4h0c-5.8,20.2-20,42.8-51.6,60-74.7,40.7-140.6-8.6-140.6-8.6S520.8,629.8,529.9,548.8Z"/>
      </g>
      <path class="cls-8" d="M528.9,541.8c4.1-35.8,35.7-63.8,51.7-78.2,32.2-28.8,28.6-61.9,27-110.8-2.1-67.1,32.4-107.1,35.6-111.3,3.6-4.8,107-119.4,239-38.5,124.6,89.1,63,222.9,60.4,228.3-1.2,2.4-25,54.3-97.7,82.3-53,20.4-70.9,61.1-76.7,81.6a101.83,101.83,0,0,1-2.6,12.4h0c-5.8,20.2-20,42.8-51.6,60-74.7,40.7-140.6-8.6-140.6-8.6S519.8,622.8,528.9,541.8Z"/>
    </g>
    <g>
      <g>
        <path class="cls-9" d="M456.6,541.7c-4.1-36.1-35.7-64.3-51.7-78.8-32.2-29.1-28.6-62.4-27-111.6,2.1-67.7-32.4-107.9-35.6-112.2-3.6-4.8-107-120.3-239-38.9C-21.3,290,40.3,424.9,42.9,430.3c1.2,2.4,25,54.8,97.7,83,53,20.6,70.9,61.6,76.7,82.2a103.27,103.27,0,0,0,2.6,12.5h0c5.8,20.4,20,43.1,51.6,60.5,74.7,41,140.6-8.7,140.6-8.7S465.7,623.3,456.6,541.7Z"/>
        <path class="cls-9" d="M448.6,548.8c-4.1-35.8-35.7-63.8-51.7-78.2-32.2-28.8-28.6-61.9-27-110.8,2.1-67.1-32.4-107.1-35.6-111.3-3.6-4.8-107-119.4-239-38.5-124.6,89.1-63,222.9-60.4,228.3,1.2,2.4,25,54.3,97.7,82.3,53,20.4,70.9,61.1,76.7,81.6a101.83,101.83,0,0,0,2.6,12.4h0c5.8,20.2,20,42.8,51.6,60,74.7,40.7,140.6-8.6,140.6-8.6S457.7,629.8,448.6,548.8Z"/>
      </g>
      <path class="cls-8" d="M449.6,541.8c-4.1-35.8-35.7-63.8-51.7-78.2-32.2-28.8-28.6-61.9-27-110.8,2.1-67.1-32.4-107.1-35.6-111.3-3.6-4.8-107-119.4-239-38.5-124.6,89.1-63,222.9-60.4,228.3,1.2,2.4,25,54.3,97.7,82.3,53,20.4,70.9,61.1,76.7,81.6a101.83,101.83,0,0,0,2.6,12.4h0c5.8,20.2,20,42.8,51.6,60,74.7,40.7,140.6-8.6,140.6-8.6S458.7,622.8,449.6,541.8Z"/>
    </g>
    <g>
      <g id="GAMECUBE">
        <path class="cls-10" d="M400.1,180.8v5.3H378.4v13.4h15.8v-3.7H385v-5.6h15.4v10.2c-.1,1.7-3.5,5.1-5.4,5.1H377.3c-2.5,0-5.9-3.4-5.9-5.1V185.6c0-2.9,1.9-4.8,4.3-4.8Z"/>
        <polygon class="cls-10" points="416.9 199.3 416.9 205.1 399 205.1 413.5 180.5 419.3 180.5 430.4 199.3 430.4 180.5 436.8 180.5 446.7 197.4 456.7 180.5 462.9 180.5 462.9 205.1 456.7 205.1 456.6 192.6 449.4 205.1 444 205.1 436.8 192.6 436.8 205.1 426.1 205.1 416.2 188.2 409.7 199.3 416.9 199.3"/>
        <polygon class="cls-10" points="465.3 180.5 465.3 205.1 490.5 205.1 490.5 199.3 472.1 199.3 472.1 195.1 482.8 195.1 482.8 189.7 472.1 189.7 472.1 185.8 490.5 185.8 490.5 180.5 465.3 180.5"/>
        <path class="cls-10" d="M515.8,190.2h6.3v-5.3s.7-4.4-3.9-4.4H498.3c-2,0-2.9.9-2.9,2.4v17.4c0,2.4,2.3,4.8,3.8,4.8h19.4s3.4.5,3.4-3.3v-7.2h-6.3v4.8H501.6V186.3h13.6v3.9Z"/>
        <path class="cls-10" d="M524.5,180.5h6.8v18.9h14V180.5h6.8v20.4s.4,4.4-5.8,4.4H529.8s-5.3.5-5.3-4.4Z"/>
        <path class="cls-10" d="M581.2,195v6.3c0,2.2-1.6,3.9-6.8,3.9H554.5V180.5h23.3a3.1,3.1,0,0,1,3.4,3.4v6.8c0,.5-.7,1.5-2.4,1.5v.5A2.48,2.48,0,0,1,581.2,195Zm-6.3,3.9V196c0-.8-.2-1-.5-1H561.3v4.4h12.6C574.6,199.4,574.9,199.1,574.9,198.9Zm0-9.7v-2.9c0-.8-.2-1-.5-1H561.3v4.4h12.6C574.6,189.7,574.9,189.4,574.9,189.2Z"/>
        <polygon class="cls-10" points="583.6 205.2 608.8 205.2 608.8 199.3 589.9 199.3 589.9 195 600.6 195 600.6 189.7 589.9 189.7 589.9 185.8 608.3 185.8 608.3 180.4 583.6 180.4 583.6 205.2"/>
      </g>
      <g id="NINTENDO">
        <polygon class="cls-10" points="376.7 155.3 376.7 173.6 380.1 173.6 380.1 160.1 387.4 173.6 391.2 173.6 391.2 155.3 387.3 155.3 387.3 166.3 381.5 155.3 376.7 155.3"/>
        <polygon class="cls-10" points="434.8 155.3 434.8 173.6 438.2 173.6 438.2 160.1 445.5 173.6 449.4 173.6 449.4 155.3 445.5 155.3 445.5 166.3 439.7 155.3 434.8 155.3"/>
        <rect class="cls-10" x="411.1" y="155.3" width="3.9" height="18.4"/>
        <polygon class="cls-10" points="465.3 155.3 465.3 158.2 471.2 158.2 471.2 173.6 475.1 173.6 475.1 158.2 480.9 158.2 480.9 155.3 465.3 155.3"/>
        <path class="cls-10" d="M498.8,162v.5h10.7v2.9H498.8v3.9a2.42,2.42,0,0,0,1.4,1.4h9.2v2.9H498.7a3.43,3.43,0,0,1-3.4-3.4V158.6a3.15,3.15,0,0,1,3.4-3.4h10.7v2.9h-8.7a2.21,2.21,0,0,0-1.9,1.5"/>
        <polygon class="cls-10" points="526.9 173.7 530.3 173.7 530.3 160.2 537.6 173.7 541 173.7 541 155.3 537.6 155.3 537.6 166.3 531.3 155.3 526.9 155.3 526.9 173.7"/>
        <path class="cls-10" d="M573,158.6v11.7c0,.9-2.5,3.4-3.9,3.4H558.5V155.3h9.7C571.1,155.3,573,157.2,573,158.6Zm-3.4,10.7v-9.7a2.76,2.76,0,0,0-1.9-1.5h-5.8v13.1h5.8C568.2,171.2,569.6,169.9,569.6,169.3Z"/>
        <path class="cls-10" d="M604.5,159.6v9.7c0,2.8-2.1,4.9-5.3,4.9h-4.8c-3.1,0-5.2-1.9-5.3-4.6V159.1c0-1.9,2-3.8,4.3-3.8h6.8C602.9,155.2,604.5,156.8,604.5,159.6Zm-3.9,9.2v-8.7a2.75,2.75,0,0,0-1.9-2h-3.8a2.14,2.14,0,0,0-2,1.9v8.8c0,1.4.5,1.9,1.5,1.9h4.4A2,2,0,0,0,600.6,168.8Z"/>
      </g>
    </g>
    <g>
      <circle class="cls-11" cx="327.9" cy="561.9" r="81.3"/>
      <circle class="cls-12" cx="327.9" cy="561.9" r="81.3"/>
    </g>
    <circle class="cls-13" cx="788.2" cy="344.7" r="109.7"/>
    <path d="M788.2,285.7a59,59,0,1,0,59,59,59.11,59.11,0,0,0-59-59Z"/>
    <path d="M769.9,206.6h0c-10.1,0-18.6,1.6-22.8,3-10,3.3-31.8,15.6-39.3,30.7-2.9,5.9-3.5,11.6-1.7,17.1,5.7,17,19.7,18.9,25.4,18.9a13.66,13.66,0,0,0,3.6-.3h.2a77.42,77.42,0,0,0,15.8-7,42.5,42.5,0,0,1,10.9-4.8c9.5-2.7,23.2-2.8,24.7-2.8h.4c.5-.1,12.7-1.4,19.7-10.6,4.1-5.4,5.5-12.4,4.1-20.7s-6.7-14.7-15.5-18.7c-8.4-4-18.5-4.8-25.5-4.8Z"/>
    <path d="M886.8,269.5a19.73,19.73,0,0,0-4.8.6c-22.7,5.6-21,27.1-20.9,27.4v.2a71.63,71.63,0,0,0,5.7,16.3,41.37,41.37,0,0,1,3.9,11.3c2,10.3.7,24.9.7,25.1v.2c0,.3.8,26.4,25.9,26.4,1.1,0,2.2-.1,3.4-.1,7.2-.6,13.1-4.1,17.7-10.3,10.6-14.6,10.3-41.2,7.9-51.6-3.3-13.4-19.2-45.5-39.5-45.5Z"/>
    <path d="M676.5,364.2A37.5,37.5,0,1,0,714,401.7a37.51,37.51,0,0,0-37.5-37.5Z"/>
    <g class="cls-14">
      <path class="cls-15" d="M189,453.1a113,113,0,1,1,113-113A113.14,113.14,0,0,1,189,453.1Z"/>
      <path d="M189,228.1a112,112,0,1,1-79.2,32.8A111.19,111.19,0,0,1,189,228.1m0-2a114,114,0,1,0,114,114,114,114,0,0,0-114-114Z"/>
    </g>
    <g id="Stick_BG" data-name="Stick BG">
      <path class="cls-16" d="M184.5,427.7,128.6,401a3.24,3.24,0,0,1-1.8-2l-21.4-58.7a3.59,3.59,0,0,1,.1-2.7l25.6-56.3a3.31,3.31,0,0,1,2.1-1.9l57.6-21a3.87,3.87,0,0,1,2.8.1l55.9,26.7a3.24,3.24,0,0,1,1.8,2l21.4,58.7a3.59,3.59,0,0,1-.1,2.7L246.9,405a3.31,3.31,0,0,1-2.1,1.9l-57.6,21A3.66,3.66,0,0,1,184.5,427.7Z"/>
      <path class="cls-17" d="M184.7,423l-52.6-25.1a3.24,3.24,0,0,1-1.8-2l-20.1-55.3a3.59,3.59,0,0,1,.1-2.7l24.1-53a3.31,3.31,0,0,1,2.1-1.9l54.2-19.7a3.87,3.87,0,0,1,2.8.1l52.6,25.1a3.24,3.24,0,0,1,1.8,2L268,345.8a3.59,3.59,0,0,1-.1,2.7l-24.1,53a3.31,3.31,0,0,1-2.1,1.9l-54.2,19.7A3.85,3.85,0,0,1,184.7,423Z"/>
      <g class="cls-18">
        <path d="M219.4,275.7l1.2.6a72.48,72.48,0,0,1,36.8,40.5l-9.6-26.4a3.55,3.55,0,0,0-1.8-2l-52.6-25.1a3.42,3.42,0,0,0-2.8-.1l-27.1,9.9A71.46,71.46,0,0,1,219.4,275.7Z"/>
        <path d="M163.5,273l-27.1,9.9a3.57,3.57,0,0,0-2.1,1.9L122.4,311A71.81,71.81,0,0,1,163.5,273Z"/>
        <path d="M158.6,410.5l-1.2-.6a72.48,72.48,0,0,1-36.8-40.5l-.9-2.5a72.47,72.47,0,0,1,2.1-54.7h0l-11.7,25.6a3.62,3.62,0,0,0-.1,2.7l20.1,55.3a3.55,3.55,0,0,0,1.8,2l52.6,25.1a3.42,3.42,0,0,0,2.8.1l27.1-9.9A71.25,71.25,0,0,1,158.6,410.5Z"/>
        <path d="M268,345.7l-10.4-28.6.8,2.2a72.47,72.47,0,0,1-2.1,54.7l-.5,1.2a72.11,72.11,0,0,1-41.1,38h0l27.1-9.9a3.57,3.57,0,0,0,2.1-1.9l24.1-53A5,5,0,0,0,268,345.7Z"/>
      </g>
    </g>
    <g id="C_Stick_BG" data-name="C Stick BG">
      <path class="cls-19" d="M645.8,649.2,590,622.5a3.24,3.24,0,0,1-1.8-2l-21.4-58.7a3.59,3.59,0,0,1,.1-2.7l25.6-56.3a3.31,3.31,0,0,1,2.1-1.9l57.6-21a3.87,3.87,0,0,1,2.8.1l55.9,26.7a3.24,3.24,0,0,1,1.8,2l21.4,58.7a3.59,3.59,0,0,1-.1,2.7l-25.6,56.3a3.31,3.31,0,0,1-2.1,1.9l-57.6,21A4.12,4.12,0,0,1,645.8,649.2Z"/>
      <path class="cls-20" d="M646,644.4l-52.6-25.1a3.24,3.24,0,0,1-1.8-2L571.4,562a3.59,3.59,0,0,1,.1-2.7l24.1-53a3.31,3.31,0,0,1,2.1-1.9l54.2-19.7a3.87,3.87,0,0,1,2.8.1l52.6,25.1a3.24,3.24,0,0,1,1.8,2l20.1,55.3a3.59,3.59,0,0,1-.1,2.7l-24.1,53a3.31,3.31,0,0,1-2.1,1.9l-54.2,19.7A3.2,3.2,0,0,1,646,644.4Z"/>
      <g class="cls-18">
        <path d="M680.8,497.1l1.2.6a72.48,72.48,0,0,1,36.8,40.5l-9.6-26.4a3.55,3.55,0,0,0-1.8-2l-52.6-25.1a3.42,3.42,0,0,0-2.8-.1l-27.1,9.9A71.91,71.91,0,0,1,680.8,497.1Z"/>
        <path d="M624.8,494.4l-27.1,9.9a3.57,3.57,0,0,0-2.1,1.9l-11.9,26.2A73.07,73.07,0,0,1,624.8,494.4Z"/>
        <path d="M620,632l-1.2-.6A72.48,72.48,0,0,1,582,590.9l-.9-2.5a72.47,72.47,0,0,1,2.1-54.7h0l-11.7,25.6a3.62,3.62,0,0,0-.1,2.7l20.1,55.3a3.55,3.55,0,0,0,1.8,2l52.6,25.1a3.42,3.42,0,0,0,2.8.1l27.1-9.9A72.1,72.1,0,0,1,620,632Z"/>
        <path d="M729.3,567.1l-10.4-28.6.8,2.2a72.47,72.47,0,0,1-2.1,54.7l-.5,1.2a72.11,72.11,0,0,1-41.1,38h0l27.1-9.9a3.57,3.57,0,0,0,2.1-1.9l24.1-53A4.16,4.16,0,0,0,729.3,567.1Z"/>
      </g>
    </g>
    <g>
      <g id="D-Pad_BG" data-name="D-Pad BG" class="cls-21">
        <path d="M312.4,628.8a7.13,7.13,0,0,1-7.1-7.1V586.6a2,2,0,0,0-2-2H268.2a7.13,7.13,0,0,1-7.1-7.1v-31a7.13,7.13,0,0,1,7.1-7.1h35.1a2,2,0,0,0,2-2V502.3a7.13,7.13,0,0,1,7.1-7.1h31a7.13,7.13,0,0,1,7.1,7.1v35.1a2,2,0,0,0,2,2h35.1a7.13,7.13,0,0,1,7.1,7.1v31a7.13,7.13,0,0,1-7.1,7.1H352.5a2,2,0,0,0-2,2v35.1a7.13,7.13,0,0,1-7.1,7.1Z"/>
        <path d="M343.4,496.6a5.59,5.59,0,0,1,5.6,5.6v35.1a3.48,3.48,0,0,0,3.5,3.5h35.1a5.59,5.59,0,0,1,5.6,5.6v31a5.59,5.59,0,0,1-5.6,5.6H352.5a3.48,3.48,0,0,0-3.5,3.5v35.1a5.59,5.59,0,0,1-5.6,5.6h-31a5.59,5.59,0,0,1-5.6-5.6V586.5a3.48,3.48,0,0,0-3.5-3.5H268.2a5.59,5.59,0,0,1-5.6-5.6v-31a5.59,5.59,0,0,1,5.6-5.6h35.1a3.48,3.48,0,0,0,3.5-3.5V502.2a5.59,5.59,0,0,1,5.6-5.6h31m0-3h-31a8.6,8.6,0,0,0-8.6,8.6v35.1a.54.54,0,0,1-.5.5H268.2a8.6,8.6,0,0,0-8.6,8.6v31a8.6,8.6,0,0,0,8.6,8.6h35.1a.54.54,0,0,1,.5.5v35.1a8.6,8.6,0,0,0,8.6,8.6h31a8.6,8.6,0,0,0,8.6-8.6V586.5a.54.54,0,0,1,.5-.5h35.1a8.6,8.6,0,0,0,8.6-8.6v-31a8.6,8.6,0,0,0-8.6-8.6H352.5a.54.54,0,0,1-.5-.5V502.2a8.6,8.6,0,0,0-8.6-8.6Z"/>
      </g>
      <path class="cls-1" d="M387.6,540.8H352.5a3.48,3.48,0,0,1-3.5-3.5V502.2a5.59,5.59,0,0,0-5.6-5.6h-31a5.59,5.59,0,0,0-5.6,5.6v35.1a3.48,3.48,0,0,1-3.5,3.5H268.2a5.59,5.59,0,0,0-5.6,5.6v31a5.59,5.59,0,0,0,5.6,5.6h35.1a3.48,3.48,0,0,1,3.5,3.5v35.1a5.59,5.59,0,0,0,5.6,5.6h31a5.59,5.59,0,0,0,5.6-5.6V586.5a3.48,3.48,0,0,1,3.5-3.5h35.1a5.59,5.59,0,0,0,5.6-5.6v-31A5.59,5.59,0,0,0,387.6,540.8Z"/>
      <g class="cls-22">
        <path d="M293.4,572.1a4,4,0,0,1-1.3-.4c-3-1.5-16.1-8.2-16.2-8.3-.6-.2-1.6-.9-1.7-1.5s1.1-1.3,1.6-1.5c.2-.1,13.3-6.9,16.2-8.3a4,4,0,0,1,1.3-.4c.3,0,.4.1.4.2a1.49,1.49,0,0,1,.2.9v18.3a1.49,1.49,0,0,1-.2.9C293.8,572,293.6,572.1,293.4,572.1Z"/>
        <path d="M293.4,552.2h0a.44.44,0,0,1,.1.5v19.1h-.1a2.41,2.41,0,0,1-1.1-.3c-3-1.4-16.1-8.2-16.2-8.3h0c-.7-.3-1.3-.8-1.3-1s.6-.8,1.3-1.1h0c.1-.1,13.2-6.9,16.2-8.3.6-.6.9-.6,1.1-.6m0-1a3.36,3.36,0,0,0-1.5.4c-3,1.5-16.2,8.3-16.2,8.3s-1.9.8-1.9,2,1.9,2,1.9,2,13.2,6.8,16.2,8.3a4.12,4.12,0,0,0,1.5.4c1.3,0,1.1-1.6,1.1-1.6V552.8s.2-1.6-1.1-1.6Z"/>
      </g>
      <g class="cls-22">
        <path d="M337.2,528H318.5a.91.91,0,0,1-.8-.3c-.2-.3-.1-.9.3-1.7,1.5-3,8.2-16.1,8.3-16.2.2-.6.9-1.7,1.5-1.7s1.3,1.1,1.5,1.6c.1.2,6.9,13.3,8.3,16.2.4.8.5,1.4.3,1.7S337.4,528,337.2,528Z"/>
        <path d="M327.9,508.7c.2,0,.7.6,1,1.3h0c.1.1,6.9,13.2,8.3,16.2.4.9.3,1.2.4,1.2a1,1,0,0,1-.4.1H318.1s-.1-.3.3-1.2c1.4-3,8.2-16.1,8.3-16.2h0a3.51,3.51,0,0,1,1.2-1.4m0-1c-1.2,0-2,1.9-2,1.9s-6.8,13.2-8.3,16.2c-1.2,2.5.3,2.7.9,2.7h18.6c.6,0,2.1-.2.9-2.7-1.5-3-8.3-16.2-8.3-16.2s-.7-1.9-1.8-1.9Z"/>
      </g>
      <g class="cls-22">
        <path d="M362.4,572.1c-.3,0-.4-.1-.4-.2a1.49,1.49,0,0,1-.2-.9V552.7a1.49,1.49,0,0,1,.2-.9.52.52,0,0,1,.4-.2,4,4,0,0,1,1.3.4c3,1.5,16.1,8.2,16.2,8.3.6.2,1.7.9,1.7,1.5s-1.1,1.3-1.6,1.5c-.2.1-13.3,6.9-16.2,8.3a2.43,2.43,0,0,1-1.4.5Z"/>
        <path d="M362.4,552.2a2.41,2.41,0,0,1,1.1.3c3,1.4,16.1,8.2,16.2,8.3h0c.7.3,1.3.8,1.3,1s-.6.8-1.3,1.1h0c-.1.1-13.2,6.9-16.2,8.3a2.17,2.17,0,0,1-1.1.3h-.1a4.33,4.33,0,0,1-.1-.5V552.6a.76.76,0,0,1,.2-.4h0m0-1c-1.3,0-1.1,1.6-1.1,1.6V571s-.2,1.6,1.1,1.6a3.36,3.36,0,0,0,1.5-.4c3-1.5,16.2-8.3,16.2-8.3s1.9-.8,1.9-2-1.9-2-1.9-2-13.2-6.8-16.2-8.3a3.36,3.36,0,0,0-1.5-.4Z"/>
      </g>
      <g class="cls-22">
        <path d="M327.9,615.6c-.6,0-1.3-1.1-1.5-1.6-.1-.2-6.9-13.3-8.3-16.2-.4-.8-.5-1.4-.3-1.7a.91.91,0,0,1,.8-.3h18.7a.91.91,0,0,1,.8.3c.2.3.1.9-.3,1.7-1.5,3-8.2,16.1-8.3,16.2C329.2,614.5,328.5,615.6,327.9,615.6Z"/>
        <path d="M318.5,596.3h19.2s.1.3-.3,1.2c-1.4,3-8.2,16.1-8.3,16.2h0c-.3.7-.8,1.3-1,1.3s-.8-.6-1.1-1.3h0c-.1-.1-6.9-13.2-8.3-16.2-.4-.9-.3-1.2-.4-1.2h.2m18.7-1H318.6c-.6,0-2.1.2-.9,2.7,1.5,3,8.3,16.2,8.3,16.2s.8,1.9,2,1.9,2-1.9,2-1.9,6.8-13.2,8.3-16.2c1-2.5-.5-2.7-1.1-2.7Z"/>
      </g>
      <g class="cls-22">
        <path d="M293.4,551.9a.44.44,0,0,1,.3.1.88.88,0,0,1,.1.7h0v18.2h0c0,.2,0,.6-.1.7a.44.44,0,0,1-.3.1,3.14,3.14,0,0,1-1.2-.4c-3-1.4-16.1-8.2-16.2-8.3h0c-.6-.3-1.5-.9-1.5-1.3s.9-1.1,1.5-1.3h0c.1-.1,13.2-6.9,16.2-8.3.6-.1,1-.2,1.2-.2m0-.7a3.36,3.36,0,0,0-1.5.4c-3,1.5-16.2,8.3-16.2,8.3s-1.9.8-1.9,2,1.9,2,1.9,2,13.2,6.8,16.2,8.3a4.12,4.12,0,0,0,1.5.4c1.3,0,1.1-1.6,1.1-1.6V552.8s.2-1.6-1.1-1.6Z"/>
      </g>
      <g class="cls-22">
        <path d="M327.9,508.4c.4,0,1.1.9,1.3,1.5h0c.1.1,6.9,13.2,8.3,16.2.5,1.1.4,1.4.3,1.5a.85.85,0,0,1-.6.2H318.8a.85.85,0,0,1-.6-.2c0-.1-.2-.4.3-1.5,1.4-3,8.2-16.1,8.3-16.2h0c0-.6.6-1.5,1.1-1.5m0-.7c-1.2,0-2,1.9-2,1.9s-6.8,13.2-8.3,16.2c-1.2,2.5.3,2.7.9,2.7h18.6c.6,0,2.1-.2.9-2.7-1.5-3-8.3-16.2-8.3-16.2s-.7-1.9-1.8-1.9Z"/>
      </g>
      <g class="cls-22">
        <path d="M362.4,551.9a3.14,3.14,0,0,1,1.2.4c3,1.4,16.1,8.2,16.2,8.3h0c.6.3,1.5.9,1.5,1.3s-.9,1.1-1.5,1.3h0c-.1.1-13.2,6.9-16.2,8.3a3.14,3.14,0,0,1-1.2.4.44.44,0,0,1-.3-.1.88.88,0,0,1-.1-.7h0V552.9h0a2,2,0,0,1,.1-.7.27.27,0,0,1,.3-.3m0-.7c-1.3,0-1.1,1.6-1.1,1.6V571s-.2,1.6,1.1,1.6a3.36,3.36,0,0,0,1.5-.4c3-1.5,16.2-8.3,16.2-8.3s1.9-.8,1.9-2-1.9-2-1.9-2-13.2-6.8-16.2-8.3a3.36,3.36,0,0,0-1.5-.4Z"/>
      </g>
      <g class="cls-22">
        <path d="M318.5,596h18.4a.85.85,0,0,1,.6.2c0,.1.2.4-.3,1.5-1.4,3-8.2,16.1-8.3,16.2h0c-.3.6-.9,1.5-1.3,1.5s-1.1-.9-1.3-1.5h0c-.1-.1-6.9-13.2-8.3-16.2-.5-1.1-.4-1.4-.3-1.5a1.2,1.2,0,0,1,.8-.2m18.7-.7H318.6c-.6,0-2.1.2-.9,2.7,1.5,3,8.3,16.2,8.3,16.2s.8,1.9,2,1.9,2-1.9,2-1.9,6.8-13.2,8.3-16.2c1-2.5-.5-2.7-1.1-2.7Z"/>
      </g>
      <circle class="cls-23" cx="327.9" cy="561.9" r="13"/>
    </g>
    <g id="Start">
      <circle class="cls-24" cx="489.3" cy="350" r="25.1" transform="translate(65.44 776.92) rotate(-80.78)"/>
      <circle class="cls-25" cx="489.3" cy="350" r="21.5"/>
    </g>
    <g>
      <g>
        <g class="cls-4">
          <path d="M442.1,298.3l-2.5,1c-.4-1.1-1-1.7-1.9-1.7a1.16,1.16,0,0,0-1,.4,1.22,1.22,0,0,0-.4.9,1.05,1.05,0,0,0,.5.9,11.6,11.6,0,0,0,1.9.9,10.38,10.38,0,0,1,2.1,1A3.74,3.74,0,0,1,442,303a4.14,4.14,0,0,1,.5,1.9,4.08,4.08,0,0,1-1.3,3.2,5,5,0,0,1-3.5,1.2c-2.4,0-4-1.3-4.7-3.8l2.6-.8c.3,1.4,1,2.1,2.2,2.1a2,2,0,0,0,1.3-.4,1.17,1.17,0,0,0,.5-1.1,1.61,1.61,0,0,0-.3-.9,2.56,2.56,0,0,0-1.5-.8,19.06,19.06,0,0,1-2.3-1,4,4,0,0,1-1.3-1.3,4.23,4.23,0,0,1-.5-2,4.3,4.3,0,0,1,1.2-3.1,4.33,4.33,0,0,1,7.2,2.1Z"/>
          <path d="M443.2,295.3h8.4v2.6h-2.8v11.3h-3V297.9h-2.7v-2.6Z"/>
          <path d="M454.7,295.3h3l3.9,13.9h-3l-.7-2.9h-3.8l-.7,2.9h-2.7Zm2.6,8.6-1.4-5.7-1.3,5.7Z"/>
          <path d="M462.7,295.3h4.2a9.76,9.76,0,0,1,1.9.1,3.79,3.79,0,0,1,1.3.6,4,4,0,0,1,1.1,1.4,4.48,4.48,0,0,1,.4,2,3.87,3.87,0,0,1-1.9,3.7l2.5,6.1H469l-1.8-5.5h-1.5v5.5h-3Zm3,2.3v3.9H467c1.2,0,1.7-.7,1.7-2a1.8,1.8,0,0,0-.3-1.1,1.7,1.7,0,0,0-.6-.6,2.51,2.51,0,0,0-1-.2Z"/>
          <path d="M472.6,295.3H481v2.6h-2.8v11.3h-3V297.9h-2.7v-2.6Z"/>
          <path d="M489.7,295.7h1.8l-8,16.9h-1.8Z"/>
          <path d="M495,295.3h3.9a9.1,9.1,0,0,1,2.7.3,3.05,3.05,0,0,1,1.6,1.4,5.38,5.38,0,0,1,.7,2.7,5.83,5.83,0,0,1-.5,2.5,3.39,3.39,0,0,1-1.5,1.4,7.15,7.15,0,0,1-2.9.4h-1v5.1h-3V295.3Zm3,2.3v4.1h.9a1.84,1.84,0,0,0,1.6-.6,3.31,3.31,0,0,0,.4-1.5,2.77,2.77,0,0,0-.3-1.3,1.7,1.7,0,0,0-.6-.6,2.79,2.79,0,0,0-1-.1Z"/>
          <path d="M507.4,295.3h3l3.9,13.9h-3l-.7-2.9h-3.8l-.7,2.9h-2.7Zm2.6,8.6-1.4-5.7-1.3,5.7Z"/>
          <path d="M515.2,295.3h3v7.9a12.89,12.89,0,0,0,.1,2.3,1.7,1.7,0,0,0,.6,1,2.13,2.13,0,0,0,1.2.3,1.59,1.59,0,0,0,1.2-.4,1.39,1.39,0,0,0,.5-1,12.89,12.89,0,0,0,.1-2.3v-7.9h2.5V303a15,15,0,0,1-.3,3.5,3.69,3.69,0,0,1-1.3,2,5.1,5.1,0,0,1-3,.8,5.55,5.55,0,0,1-2.8-.6,2.91,2.91,0,0,1-1.4-1.7,15.2,15.2,0,0,1-.4-3.9v-7.8Z"/>
          <path d="M535.2,298.3l-2.5,1c-.4-1.1-1-1.7-1.9-1.7a1.16,1.16,0,0,0-1,.4,1.22,1.22,0,0,0-.4.9,1.05,1.05,0,0,0,.5.9,11.6,11.6,0,0,0,1.9.9,10.38,10.38,0,0,1,2.1,1,3.74,3.74,0,0,1,1.2,1.3,4.14,4.14,0,0,1,.5,1.9,4.08,4.08,0,0,1-1.3,3.2,5,5,0,0,1-3.5,1.2c-2.4,0-4-1.3-4.7-3.8l2.6-.8c.3,1.4,1,2.1,2.2,2.1a2,2,0,0,0,1.3-.4,1.17,1.17,0,0,0,.5-1.1,1.61,1.61,0,0,0-.3-.9,2.56,2.56,0,0,0-1.5-.8,19.06,19.06,0,0,1-2.3-1,4,4,0,0,1-1.3-1.3,4.23,4.23,0,0,1-.5-2,4.3,4.3,0,0,1,1.2-3.1,4.14,4.14,0,0,1,3.1-1.2A4.25,4.25,0,0,1,535.2,298.3Z"/>
          <path d="M537.3,295.3h8.2v2.4h-5.2v3.2h4.1v2.4h-4.1v3.4h5.2v2.5h-8.2Z"/>
        </g>
        <g class="cls-5">
          <path class="cls-6" d="M442.1,298.3l-2.5,1c-.4-1.1-1-1.7-1.9-1.7a1.16,1.16,0,0,0-1,.4,1.22,1.22,0,0,0-.4.9,1.05,1.05,0,0,0,.5.9,11.6,11.6,0,0,0,1.9.9,10.38,10.38,0,0,1,2.1,1A3.74,3.74,0,0,1,442,303a4.14,4.14,0,0,1,.5,1.9,4.08,4.08,0,0,1-1.3,3.2,5,5,0,0,1-3.5,1.2c-2.4,0-4-1.3-4.7-3.8l2.6-.8c.3,1.4,1,2.1,2.2,2.1a2,2,0,0,0,1.3-.4,1.17,1.17,0,0,0,.5-1.1,1.61,1.61,0,0,0-.3-.9,2.56,2.56,0,0,0-1.5-.8,19.06,19.06,0,0,1-2.3-1,4,4,0,0,1-1.3-1.3,4.23,4.23,0,0,1-.5-2,4.3,4.3,0,0,1,1.2-3.1,4.33,4.33,0,0,1,7.2,2.1Z"/>
          <path class="cls-6" d="M443.2,295.3h8.4v2.6h-2.8v11.3h-3V297.9h-2.7v-2.6Z"/>
          <path class="cls-6" d="M454.7,295.3h3l3.9,13.9h-3l-.7-2.9h-3.8l-.7,2.9h-2.7Zm2.6,8.6-1.4-5.7-1.3,5.7Z"/>
          <path class="cls-6" d="M462.7,295.3h4.2a9.76,9.76,0,0,1,1.9.1,3.79,3.79,0,0,1,1.3.6,4,4,0,0,1,1.1,1.4,4.48,4.48,0,0,1,.4,2,3.87,3.87,0,0,1-1.9,3.7l2.5,6.1H469l-1.8-5.5h-1.5v5.5h-3Zm3,2.3v3.9H467c1.2,0,1.7-.7,1.7-2a1.8,1.8,0,0,0-.3-1.1,1.7,1.7,0,0,0-.6-.6,2.51,2.51,0,0,0-1-.2Z"/>
          <path class="cls-6" d="M472.6,295.3H481v2.6h-2.8v11.3h-3V297.9h-2.7v-2.6Z"/>
          <path class="cls-6" d="M489.7,295.7h1.8l-8,16.9h-1.8Z"/>
          <path class="cls-6" d="M495,295.3h3.9a9.1,9.1,0,0,1,2.7.3,3.05,3.05,0,0,1,1.6,1.4,5.38,5.38,0,0,1,.7,2.7,5.83,5.83,0,0,1-.5,2.5,3.39,3.39,0,0,1-1.5,1.4,7.15,7.15,0,0,1-2.9.4h-1v5.1h-3V295.3Zm3,2.3v4.1h.9a1.84,1.84,0,0,0,1.6-.6,3.31,3.31,0,0,0,.4-1.5,2.77,2.77,0,0,0-.3-1.3,1.7,1.7,0,0,0-.6-.6,2.79,2.79,0,0,0-1-.1Z"/>
          <path class="cls-6" d="M507.4,295.3h3l3.9,13.9h-3l-.7-2.9h-3.8l-.7,2.9h-2.7Zm2.6,8.6-1.4-5.7-1.3,5.7Z"/>
          <path class="cls-6" d="M515.2,295.3h3v7.9a12.89,12.89,0,0,0,.1,2.3,1.7,1.7,0,0,0,.6,1,2.13,2.13,0,0,0,1.2.3,1.59,1.59,0,0,0,1.2-.4,1.39,1.39,0,0,0,.5-1,12.89,12.89,0,0,0,.1-2.3v-7.9h2.5V303a15,15,0,0,1-.3,3.5,3.69,3.69,0,0,1-1.3,2,5.1,5.1,0,0,1-3,.8,5.55,5.55,0,0,1-2.8-.6,2.91,2.91,0,0,1-1.4-1.7,15.2,15.2,0,0,1-.4-3.9v-7.8Z"/>
          <path class="cls-6" d="M535.2,298.3l-2.5,1c-.4-1.1-1-1.7-1.9-1.7a1.16,1.16,0,0,0-1,.4,1.22,1.22,0,0,0-.4.9,1.05,1.05,0,0,0,.5.9,11.6,11.6,0,0,0,1.9.9,10.38,10.38,0,0,1,2.1,1,3.74,3.74,0,0,1,1.2,1.3,4.14,4.14,0,0,1,.5,1.9,4.08,4.08,0,0,1-1.3,3.2,5,5,0,0,1-3.5,1.2c-2.4,0-4-1.3-4.7-3.8l2.6-.8c.3,1.4,1,2.1,2.2,2.1a2,2,0,0,0,1.3-.4,1.17,1.17,0,0,0,.5-1.1,1.61,1.61,0,0,0-.3-.9,2.56,2.56,0,0,0-1.5-.8,19.06,19.06,0,0,1-2.3-1,4,4,0,0,1-1.3-1.3,4.23,4.23,0,0,1-.5-2,4.3,4.3,0,0,1,1.2-3.1,4.14,4.14,0,0,1,3.1-1.2A4.25,4.25,0,0,1,535.2,298.3Z"/>
          <path class="cls-6" d="M537.3,295.3h8.2v2.4h-5.2v3.2h4.1v2.4h-4.1v3.4h5.2v2.5h-8.2Z"/>
        </g>
      </g>
    </g>
    <g id="Triggers">
      <g>
        <path class="cls-1" d="M231.8,90H102.7a.94.94,0,0,1-1-1V52a52,52,0,0,1,52-52h27.2a52,52,0,0,1,52,52V89A1.09,1.09,0,0,1,231.8,90Z"/>
        <ellipse class="cls-38" cx="167.2" cy="89.3" rx="65.6" ry="5.3"/>
      </g>
      <g>
        <path class="cls-1" d="M746.7,90H875.9a.94.94,0,0,0,1-1V52a52,52,0,0,0-52-52H797.7a52,52,0,0,0-52,52V89A.94.94,0,0,0,746.7,90Z"/>
        <ellipse class="cls-38" cx="811.3" cy="89.3" rx="65.6" ry="5.3"/>
      </g>
    </g>
    <g id="Buttons">
      <g>
        <circle class="cls-39" cx="788.2" cy="344.7" r="57"/>
        <g class="cls-3">
          <g class="cls-4">
            <path d="M785,327.3h6.5l6.9,30.9h-5.5l-1.2-6.5h-6.9l-1.2,6.5h-5.5Zm.7,19.3h5.1l-2.5-13.9h-.1Z"/>
          </g>
          <g class="cls-5">
            <path class="cls-6" d="M785,327.3h6.5l6.9,30.9h-5.5l-1.2-6.5h-6.9l-1.2,6.5h-5.5Zm.7,19.3h5.1l-2.5-13.9h-.1Z"/>
          </g>
        </g>
      </g>
      <g>
        <path class="cls-25" d="M786.7,259.2h.3s26.5-2.8,22-29c-2.9-17-22.3-21.6-39.1-21.6-9.2,0-17.6,1.4-22.2,2.9-13,4.3-46.8,24.4-39.8,45.2,5.2,15.5,17.6,17.5,23.5,17.5a21.51,21.51,0,0,0,3.2-.2c14.5-4.6,16.3-8.9,26.8-11.9C771.2,259.4,784.7,259.2,786.7,259.2Z"/>
        <g class="cls-3">
          <g class="cls-4">
            <path d="M754.3,224.4l3.4,11.6h.1l3.6-11.6h5.7l-6.7,18.2v11.8h-5.3V242.6l-6.7-18.2Z"/>
          </g>
          <g class="cls-5">
            <path class="cls-6" d="M754.3,224.4l3.4,11.6h.1l3.6-11.6h5.7l-6.7,18.2v11.8h-5.3V242.6l-6.7-18.2Z"/>
          </g>
        </g>
      </g>
      <g>
        <path class="cls-25" d="M924.2,315.4c-2.9-12.4-18.2-43.9-37.5-43.9a21,21,0,0,0-4.3.5c-21.3,5.3-19.4,25.2-19.4,25.2,3.4,14.8,7.5,16.9,9.6,27.6s.8,25.7.8,25.7.5,24.5,23.9,24.5c1,0,2.1,0,3.2-.1C927,372.6,927.4,328.7,924.2,315.4Z"/>
        <g class="cls-3">
          <g class="cls-4">
            <path d="M889,306h5.8l3.4,9.7,3.3-9.7h5.7l-6.1,14.8,6.5,15.1h-5.9l-3.8-10.1-3.7,10.1h-5.8l6.5-15.1Z"/>
          </g>
          <g class="cls-5">
            <path class="cls-6" d="M889,306h5.8l3.4,9.7,3.3-9.7h5.7l-6.1,14.8,6.5,15.1h-5.9l-3.8-10.1-3.7,10.1h-5.8l6.5-15.1Z"/>
          </g>
        </g>
      </g>
      <g>
        <circle class="cls-40" cx="676.5" cy="401.7" r="35.5"/>
        <g class="cls-3">
          <g class="cls-4">
            <path d="M668.8,384h8.8c4.3,0,7.4,1.9,7.4,8,0,3.4-1.3,6-3.9,6.9v.1c2.9.5,4.7,3.1,4.7,7.4,0,5-2,9.3-8.1,9.3h-8.9Zm5.3,13h1.5c2.9,0,4.2-1.2,4.2-4.2s-1.2-4.1-3.8-4.1h-1.9Zm0,14h2c2.5,0,4.2-1.1,4.2-4.8s-1.7-4.7-4-4.7H674V411Z"/>
          </g>
          <g class="cls-5">
            <path class="cls-6" d="M668.8,384h8.8c4.3,0,7.4,1.9,7.4,8,0,3.4-1.3,6-3.9,6.9v.1c2.9.5,4.7,3.1,4.7,7.4,0,5-2,9.3-8.1,9.3h-8.9Zm5.3,13h1.5c2.9,0,4.2-1.2,4.2-4.2s-1.2-4.1-3.8-4.1h-1.9Zm0,14h2c2.5,0,4.2-1.1,4.2-4.8s-1.7-4.7-4-4.7H674V411Z"/>
          </g>
        </g>
      </g>
      <path id="Z_Button" data-name="Z Button" class="cls-2" d="M832.2,179.9c5.8,1.9,11.6,4.2,17.5,6.8a206.52,206.52,0,0,1,32.5,16.4c3.1,2.2,6,4.4,8.8,6.6.6-.8,1.3-2,2.4-3.6,4.6-9-27.8-37.3-74-54.6s-76.9-12.7-79.2-12.1a8.07,8.07,0,0,0-3.8,2.8C788.9,159.3,824.2,176,832.2,179.9Z"/>
    </g>
  </g>
</svg>
